<svg xmlns="http://www.w3.org/2000/svg" width="190" height="150" viewBox="0 0 190 150" fill="none">
<path fill-rule="evenodd" clip-rule="evenodd" d="M122.141 108.243C116.089 107.881 110.014 107.061 103.947 105.759C53.1258 94.856 15.5794 52.8956 3.06957 0H0C12.5744 54.1985 50.9269 97.4525 103.318 108.693C110.112 110.15 116.911 111.02 123.674 111.333C131.332 126.251 141.822 139.24 154.411 150H159.124C146.017 139.395 135.083 126.428 127.121 111.445C140.987 111.702 154.667 109.633 167.796 105.51C187.955 133.522 223.019 149.646 261.041 148.993V146.003C224.236 146.657 190.438 131.188 170.804 104.527C208.821 91.598 241.92 61.3996 261.041 20.674V13.3314C242.63 56.7881 208.395 88.8602 168.981 101.96C164.496 95.4046 160.843 88.2162 158.177 80.4624C156.725 76.2399 155.607 71.9697 154.809 67.6756C187.111 59.3704 215.549 34.4788 230.719 0H227.441C212.526 33.0143 185.175 56.6652 154.308 64.6919C150.963 42.5264 156.054 19.8757 167.834 0H164.362C152.835 20.1319 147.913 42.9685 151.376 65.4046C139.066 68.191 126.248 68.4952 113.476 65.928C111.361 43.5084 115.504 20.9243 124.91 0H121.621C112.523 20.7247 108.463 43.0316 110.395 65.2522C77.9038 57.5296 52.945 32.4926 41.3768 0H38.2067C50.0219 34.1637 76.2222 60.6137 110.709 68.4047C111.712 77.3144 113.687 86.1974 116.696 94.9462C118.271 99.5259 120.091 103.961 122.141 108.243ZM151.885 68.3797C139.538 71.1513 126.676 71.5026 113.812 69.0507C114.821 77.4239 116.71 85.7624 119.533 93.9707C121.247 98.9573 123.263 103.77 125.558 108.399C139.315 108.833 152.921 106.914 165.993 102.913C161.597 96.3484 157.999 89.1704 155.34 81.4379C153.855 77.1213 152.708 72.7608 151.885 68.3797Z" fill="white" fill-opacity="0.2"/>
</svg>
