<svg width="34" height="27" viewBox="0 0 34 27" fill="none" xmlns="http://www.w3.org/2000/svg">
<path d="M30.715 26.8844L3.40004 26.9999C1.5902 27.0104 0.0942064 25.5192 0.0837449 23.7024L5.49182e-05 3.44461C-0.0104066 1.62782 1.47513 0.126076 3.28497 0.115575L30.6 5.51293e-05C32.4098 -0.0104466 33.9058 1.4808 33.9163 3.29759L33.9999 23.5554C34.0104 25.3827 32.5249 26.8844 30.715 26.8844Z" fill="#43454D"/>
<path d="M13.1398 23.3769C12.9933 23.3769 12.8573 23.3034 12.7841 23.1668C12.6795 22.9778 12.7632 22.7363 12.9515 22.6312C13.5164 22.3372 14.2905 21.7806 14.7299 20.8355C15.2948 19.6278 15.1379 18.315 14.8973 18.21C14.8345 18.1785 14.6044 18.3045 14.4579 18.378C14.0918 18.5671 13.5792 18.8296 12.9828 18.6301C12.397 18.4306 12.1145 17.916 11.9785 17.6639C11.0789 16.0362 10.7859 11.783 11.717 9.66164C12.0308 8.95802 12.4493 8.53795 12.9724 8.41193C13.5059 8.28591 13.9453 8.50645 14.301 8.68498C14.5939 8.832 14.7404 8.89501 14.8241 8.8425C15.1902 8.62196 15.1798 7.26725 14.6567 6.19607C14.2068 5.25092 13.4327 4.70483 12.8573 4.41079C12.669 4.31627 12.5853 4.07473 12.6899 3.8857C12.7841 3.69667 13.0247 3.61265 13.213 3.71767C13.893 4.06422 14.8136 4.71533 15.3576 5.86002C15.9016 6.9942 16.1631 8.94752 15.2216 9.52511C14.7508 9.81916 14.2905 9.58813 13.9348 9.3991C13.6628 9.26257 13.4013 9.12605 13.1502 9.18906C12.805 9.27307 12.5644 9.67214 12.4284 9.98719C11.6124 11.8355 11.8635 15.8576 12.6585 17.2859C12.7945 17.5274 12.9515 17.79 13.2339 17.8845C13.4955 17.979 13.7465 17.8635 14.1022 17.6744C14.4475 17.4959 14.8345 17.2964 15.2425 17.4959C16.1213 17.916 16.069 19.8168 15.4413 21.1715C14.9078 22.3267 13.9872 22.9778 13.3072 23.3349C13.2653 23.3664 13.2025 23.3769 13.1398 23.3769Z" fill="#E4D6F3"/>
<path d="M11.9053 10.3758L4.83333 10.4073C4.61364 10.4073 4.43579 10.2288 4.43579 10.0187C4.43579 9.7982 4.61364 9.61967 4.82287 9.61967L11.8948 9.58817C12.1145 9.58817 12.2924 9.76669 12.2924 9.97672C12.3028 10.1973 12.125 10.3758 11.9053 10.3758Z" fill="#E4D6F3"/>
<path d="M11.9368 17.4749L4.86483 17.5064C4.64514 17.5064 4.46729 17.3279 4.46729 17.1178C4.46729 16.8973 4.64513 16.7188 4.85436 16.7188L11.9263 16.6873C12.146 16.6873 12.3239 16.8658 12.3239 17.0758C12.3239 17.2859 12.1565 17.4749 11.9368 17.4749Z" fill="#E4D6F3"/>
<path d="M21.3833 23.3454C21.3205 23.3454 21.2577 23.3349 21.2054 23.3034C20.5254 22.9568 19.6048 22.3057 19.0608 21.161C18.4122 19.8168 18.3494 17.916 19.2282 17.4854C19.6362 17.2859 20.0233 17.4854 20.3685 17.6534C20.7242 17.832 20.9753 17.9475 21.2368 17.853C21.5297 17.748 21.6971 17.4329 21.8017 17.2439C22.5759 15.8051 22.7956 11.783 21.9691 9.94519C21.8226 9.63014 21.582 9.23107 21.2368 9.15756C21.0276 9.10505 20.8916 8.89502 20.9439 8.68499C20.9962 8.47495 21.2054 8.33843 21.4146 8.39094C21.9377 8.51696 22.3666 8.92652 22.6805 9.63013C23.6325 11.741 23.3709 15.9942 22.4922 17.6324C22.3562 17.8845 22.0737 18.4096 21.4983 18.6091C20.902 18.8191 20.3894 18.5566 20.0233 18.3676C19.8768 18.2941 19.6362 18.1785 19.5839 18.1995C19.3433 18.315 19.2073 19.6278 19.7826 20.825C20.2325 21.7701 21.0066 22.3162 21.582 22.6102C21.7703 22.7048 21.854 22.9463 21.7494 23.1353C21.6657 23.2614 21.5297 23.3454 21.3833 23.3454Z" fill="#E4D6F3"/>
<path d="M19.7513 8.76899C19.5839 8.76899 19.4375 8.66398 19.3747 8.49595C18.5273 5.96504 20.4836 4.00121 21.1218 3.67566C21.3101 3.57064 21.5507 3.65466 21.6553 3.84369C21.7599 4.03272 21.6762 4.27426 21.4879 4.37927C21.2054 4.5263 19.4061 6.09105 20.1279 8.2439C20.2011 8.45394 20.0861 8.67448 19.8768 8.74799C19.835 8.75849 19.7931 8.76899 19.7513 8.76899Z" fill="#E4D6F3"/>
<path d="M29.575 10.3023L22.503 10.3338C22.2833 10.3338 22.1055 10.1552 22.1055 9.9452C22.1055 9.72466 22.2833 9.54614 22.4925 9.54614L29.5645 9.51463C29.7842 9.51463 29.9621 9.69316 29.9621 9.90319C29.9725 10.1237 29.7947 10.3023 29.575 10.3023Z" fill="#E4D6F3"/>
<path d="M29.606 17.4014L22.534 17.4329C22.3143 17.4329 22.1365 17.2544 22.1365 17.0444C22.1365 16.8238 22.3143 16.6453 22.5236 16.6453L29.5955 16.6138C29.8152 16.6138 29.9931 16.7923 29.9931 17.0024C30.0035 17.2229 29.8257 17.4014 29.606 17.4014Z" fill="#E4D6F3"/>
</svg>
