<svg width="32" height="32" viewBox="0 0 32 32" fill="none" xmlns="http://www.w3.org/2000/svg">
<g clip-path="url(#clip0_14001_93)">
<mask id="mask0_14001_93" style="mask-type:luminance" maskUnits="userSpaceOnUse" x="0" y="0" width="32" height="32">
<path d="M32 0H0V32H32V0Z" fill="white"/>
</mask>
<g mask="url(#mask0_14001_93)">
<path d="M4.80005 9.19141C4.80005 6.76613 6.76613 4.80005 9.19141 4.80005H22.8087C25.234 4.80005 27.2 6.76613 27.2 9.19141V22.8087C27.2 25.234 25.234 27.2 22.8087 27.2H9.19141C6.76613 27.2 4.80005 25.234 4.80005 22.8087V9.19141Z" fill="#73B06F"/>
<path fill-rule="evenodd" clip-rule="evenodd" d="M9.19132 0.960022H22.8086C27.3547 0.960022 31.04 4.64531 31.04 9.19138V22.8087C31.04 27.3547 27.3547 31.04 22.8086 31.04H9.19132C4.64525 31.04 0.959961 27.3547 0.959961 22.8087V9.19138C0.959961 4.64531 4.64525 0.960022 9.19132 0.960022ZM9.19132 4.80002C6.76604 4.80002 4.79996 6.7661 4.79996 9.19138V22.8087C4.79996 25.2339 6.76604 27.2 9.19132 27.2H22.8086C25.2339 27.2 27.2 25.2339 27.2 22.8087V9.19138C27.2 6.7661 25.2339 4.80002 22.8086 4.80002H9.19132Z" fill="#E3ECE6"/>
<path d="M23.1174 20.1047C22.9993 19.911 22.845 19.7434 22.6635 19.6119C22.482 19.4804 22.2768 19.3874 22.0601 19.3386C21.2309 19.1397 20.5117 18.6104 20.0597 17.8662C19.6077 17.1221 19.4598 16.2237 19.648 15.3674C19.7204 15.0365 19.6964 14.6908 19.5789 14.3739C19.4614 14.057 19.2558 13.7829 18.9878 13.5861C18.7198 13.3893 18.4014 13.2786 18.0726 13.2678C17.7438 13.2571 17.4192 13.3467 17.1397 13.5256C16.8601 13.7045 16.6381 13.9645 16.5013 14.2731C16.3646 14.5818 16.3193 14.9251 16.3712 15.2602C16.4231 15.5952 16.5699 15.907 16.793 16.1563C17.0161 16.4056 17.3057 16.5814 17.6254 16.6615C18.039 16.7577 18.43 16.9371 18.7762 17.1896C19.1224 17.4419 19.4169 17.7623 19.6427 18.1323C19.8686 18.5023 20.0215 18.9146 20.0926 19.3457C20.1637 19.7767 20.1516 20.218 20.057 20.6442C20.001 20.9189 20.011 21.2036 20.0861 21.4735C20.1612 21.7434 20.2992 21.9901 20.488 22.1924C20.6768 22.3947 20.9107 22.5462 21.1693 22.6339C21.4279 22.7216 21.7034 22.7426 21.9718 22.6954C22.2401 22.6481 22.4932 22.5338 22.7088 22.3626C22.9246 22.1913 23.0964 21.9682 23.2094 21.7128C23.3223 21.4573 23.373 21.1772 23.357 20.897C23.3409 20.6167 23.2587 20.3447 23.1174 20.1047Z" fill="#E3ECE6"/>
<path d="M12.8542 18.1937C13.1463 18.3581 13.4792 18.4287 13.8104 18.3966C14.1416 18.3644 14.4559 18.2309 14.7131 18.0132C14.9702 17.7955 15.1584 17.5035 15.2535 17.1747C15.3486 16.846 15.3463 16.4954 15.2469 16.1679C15.1208 15.7505 15.076 15.3114 15.1148 14.876C15.1536 14.4406 15.2753 14.0174 15.4731 13.6306C15.6708 13.2438 15.9406 12.9011 16.267 12.622C16.5934 12.343 16.9701 12.1331 17.3752 12.0046C17.6895 11.903 17.9676 11.7079 18.1746 11.4437C18.3816 11.1795 18.5082 10.8582 18.5384 10.5199C18.5687 10.1818 18.5014 9.84187 18.3448 9.54312C18.1882 9.2443 17.9495 8.99995 17.6586 8.84078C17.3676 8.68161 17.0376 8.61473 16.7099 8.64859C16.3822 8.68245 16.0716 8.81544 15.817 9.03099C15.5625 9.24648 15.3755 9.5348 15.2794 9.85972C15.1834 10.1846 15.1828 10.5315 15.2775 10.8568C15.5261 11.6965 15.4421 12.6037 15.0437 13.3797C14.6453 14.1557 13.9651 14.7373 13.1519 14.9973C12.8309 15.0933 12.5452 15.2864 12.3319 15.5518C12.1185 15.8172 11.9873 16.1425 11.9552 16.4856C11.9231 16.8287 11.9917 17.1739 12.152 17.4764C12.3123 17.7789 12.5569 18.0248 12.8542 18.1822V18.1937Z" fill="#E3ECE6"/>
<path d="M17.1497 17.9125C16.9278 17.9205 16.7096 17.9742 16.508 18.0702C16.3064 18.1664 16.1254 18.3029 15.9756 18.472C15.3945 19.1131 14.591 19.4907 13.7407 19.5225C12.8904 19.5542 12.0625 19.2374 11.438 18.6414C11.2766 18.4852 11.0868 18.3637 10.8795 18.2839C10.6722 18.2041 10.4516 18.1676 10.2306 18.1765C9.95843 18.1897 9.69354 18.2715 9.45904 18.4146C9.22461 18.5577 9.02768 18.7578 8.88547 18.9974C8.7432 19.2371 8.66 19.509 8.64311 19.7894C8.62621 20.0699 8.67613 20.3503 8.78851 20.6063C8.9009 20.8622 9.07229 21.086 9.28778 21.2579C9.50327 21.4299 9.75626 21.5447 10.0247 21.5927C10.2932 21.6405 10.5689 21.6199 10.8279 21.5326C11.0868 21.4453 11.3211 21.294 11.5103 21.0918C11.7981 20.7704 12.1445 20.5108 12.5298 20.3277C12.915 20.1447 13.3315 20.0418 13.7553 20.025C14.1792 20.0082 14.602 20.0778 14.9998 20.2299C15.3975 20.3819 15.7622 20.6133 16.0731 20.911C16.2754 21.0996 16.5195 21.2341 16.7839 21.3029C17.0484 21.3717 17.3252 21.3726 17.59 21.3056C17.8549 21.2386 18.0998 21.1056 18.3033 20.9184C18.5069 20.7311 18.6628 20.4953 18.7575 20.2315C18.8523 19.9677 18.8828 19.684 18.8467 19.4052C18.8105 19.1264 18.7086 18.861 18.55 18.6322C18.3913 18.4034 18.1808 18.2181 17.9367 18.0927C17.6926 17.9673 17.4224 17.9054 17.1497 17.9125Z" fill="#E3ECE6"/>
</g>
</g>
<defs>
<clipPath id="clip0_14001_93">
<rect width="32" height="32" fill="white"/>
</clipPath>
</defs>
</svg>
