<svg width="21" height="20" viewBox="0 0 21 20" fill="none" xmlns="http://www.w3.org/2000/svg">
<g id="User Interface / Plus">
<path id="Vector" d="M16.3333 9.16665H11.3333V4.16665C11.3333 3.94563 11.2455 3.73367 11.0893 3.57739C10.933 3.42111 10.721 3.33331 10.5 3.33331C10.279 3.33331 10.067 3.42111 9.91075 3.57739C9.75447 3.73367 9.66668 3.94563 9.66668 4.16665V9.16665H4.66668C4.44566 9.16665 4.2337 9.25444 4.07742 9.41072C3.92114 9.567 3.83334 9.77897 3.83334 9.99998C3.83334 10.221 3.92114 10.433 4.07742 10.5892C4.2337 10.7455 4.44566 10.8333 4.66668 10.8333H9.66668V15.8333C9.66668 16.0543 9.75447 16.2663 9.91075 16.4226C10.067 16.5788 10.279 16.6666 10.5 16.6666C10.721 16.6666 10.933 16.5788 11.0893 16.4226C11.2455 16.2663 11.3333 16.0543 11.3333 15.8333V10.8333H16.3333C16.5544 10.8333 16.7663 10.7455 16.9226 10.5892C17.0789 10.433 17.1667 10.221 17.1667 9.99998C17.1667 9.77897 17.0789 9.567 16.9226 9.41072C16.7663 9.25444 16.5544 9.16665 16.3333 9.16665Z" fill="white"/>
</g>
</svg>
