<svg width="56" height="17" viewBox="0 0 56 17" fill="none" xmlns="http://www.w3.org/2000/svg">
<g id="Group">
<g id="Group_2">
<g id="Group_3">
<path id="Vector" d="M52.3719 0.300659L48.9097 0.300659C47.8317 0.300659 47.0335 0.601266 46.5567 1.65858L39.9018 16.7513H44.6079C44.6079 16.7513 45.3853 14.7196 45.5512 14.2842H51.2939C51.4286 14.8647 51.8329 16.7513 51.8329 16.7513H56L52.3719 0.300659ZM46.8469 10.9153C47.2201 9.972 48.6195 6.31285 48.6195 6.31285C48.6195 6.30248 49.003 5.34883 49.2207 4.74761L49.5213 6.16773C49.5213 6.16773 50.3817 10.086 50.5579 10.9257H46.8469V10.9153Z" fill="#262833"/>
</g>
<g id="Group_4">
<path id="Vector_2" d="M33.9207 4.86162C33.9103 5.63906 34.8744 6.14698 36.45 6.90368C39.0311 8.08539 40.2335 9.49516 40.2128 11.3817C40.1817 14.7921 37.1238 17 32.3969 17C30.3859 16.9793 28.4475 16.575 27.4006 16.1189L28.0329 12.4287L28.6134 12.6982C30.075 13.3098 31.039 13.5586 32.8323 13.5586C34.1177 13.5586 35.4963 13.0506 35.5067 11.9519C35.517 11.2262 34.9262 10.708 33.1847 9.89942C31.4744 9.11162 29.225 7.79515 29.2457 5.43174C29.2664 2.23905 32.3969 3.05176e-05 36.8232 3.05176e-05C38.5646 3.05176e-05 39.964 0.362833 40.8451 0.694541L40.2335 4.2604L39.8293 4.07381C39 3.7421 37.9323 3.42076 36.4707 3.44149C34.7396 3.44149 33.9207 4.17747 33.9207 4.86162Z" fill="#262833"/>
</g>
<g id="Group_5">
<path id="Vector_3" d="M27.4006 0.290283L24.5915 16.7409H20.1134L22.9122 0.290283L27.4006 0.290283Z" fill="#262833"/>
</g>
<g id="Group_6">
<path id="Vector_4" d="M11.2921 8.75919C9.79938 4.95493 6.22316 1.79334 0.801819 0.476879L0.864011 0.145172L7.81949 0.145172C8.76278 0.17627 9.51947 0.47688 9.77862 1.48237L11.2921 8.75919Z" fill="#262833"/>
</g>
<g id="Group_7">
<path id="Vector_5" d="M21.1085 0.300659L14.039 16.7305H9.3018L5.29022 3.01651C8.17193 4.86163 10.6286 7.79517 11.4994 9.83724L11.9762 11.5372L16.3713 0.311027L21.1085 0.311027V0.300659Z" fill="#262833"/>
</g>
</g>
</g>
</svg>
